<svg xmlns="http://www.w3.org/2000/svg" xmlns:xlink="http://www.w3.org/1999/xlink" width="1500" zoomAndPan="magnify" viewBox="0 0 1125 749.999995" height="1000" preserveAspectRatio="xMidYMid meet" version="1.0"><defs><g/><clipPath id="23a376afa2"><path d="M 852 295 L 1066 295 L 1066 327 L 852 327 Z M 852 295 " clip-rule="nonzero"/></clipPath><clipPath id="22f1760e83"><path d="M 1063.160156 345.101562 L 851.769531 326.019531 L 855.8125 281.203125 L 1067.203125 300.28125 Z M 1063.160156 345.101562 " clip-rule="nonzero"/></clipPath><clipPath id="72e7030455"><path d="M 1063.160156 345.101562 L 851.769531 326.019531 L 855.8125 281.203125 L 1067.203125 300.28125 Z M 1063.160156 345.101562 " clip-rule="nonzero"/></clipPath><clipPath id="fb36a4ebe3"><path d="M 1063.160156 345.101562 L 851.769531 326.019531 L 855.8125 281.203125 L 1067.203125 300.28125 Z M 1063.160156 345.101562 " clip-rule="nonzero"/></clipPath><clipPath id="5f4441b49c"><path d="M 12 7 L 232 7 L 232 370.71875 L 12 370.71875 Z M 12 7 " clip-rule="nonzero"/></clipPath><clipPath id="da7d59de5c"><rect x="0" width="615" y="0" height="371"/></clipPath><clipPath id="39894ef2cb"><rect x="0" width="491" y="0" height="69"/></clipPath><clipPath id="6c3fda65f0"><path d="M 58 305 L 288 305 L 288 341 L 58 341 Z M 58 305 " clip-rule="nonzero"/></clipPath><clipPath id="ac733f5b6e"><path d="M 60.308594 288.492188 L 288.386719 305.996094 L 284.714844 353.855469 L 56.632812 336.351562 Z M 60.308594 288.492188 " clip-rule="nonzero"/></clipPath><clipPath id="ea6b8e49f9"><path d="M 60.308594 288.492188 L 288.386719 305.996094 L 284.714844 353.855469 L 56.632812 336.351562 Z M 60.308594 288.492188 " clip-rule="nonzero"/></clipPath><clipPath id="616fe2c342"><path d="M 60.308594 288.492188 L 288.386719 305.996094 L 284.714844 353.855469 L 56.632812 336.351562 Z M 60.308594 288.492188 " clip-rule="nonzero"/></clipPath></defs><g clip-path="url(#23a376afa2)"><g clip-path="url(#22f1760e83)"><g clip-path="url(#72e7030455)"><g clip-path="url(#fb36a4ebe3)"><path fill="#000000" d="M 852.464844 321.804688 L 852.148438 325.316406 C 852.476562 325.550781 852.761719 325.828125 853 326.132812 C 860.839844 322.480469 880.609375 315.488281 901.824219 311.828125 C 928.570312 307.210938 981.363281 296.671875 1010.027344 298.15625 C 1011.945312 298.191406 1013.851562 298.363281 1015.617188 298.523438 C 1039.699219 300.695312 1048.183594 308.492188 1059.476562 320.128906 C 1059.476562 320.128906 1060.761719 321.070312 1062.257812 321.207031 C 1063.210938 321.292969 1064.199219 320.96875 1064.855469 319.785156 C 1065.164062 319.398438 1065.210938 318.851562 1065.25 318.441406 C 1065.507812 315.570312 1062.589844 311.445312 1055.972656 307.265625 C 1049.628906 303.109375 1037.097656 297.566406 1017.648438 295.808594 C 1013.019531 295.390625 1007.964844 295.210938 1002.472656 295.265625 C 974.03125 295.871094 925.246094 303.046875 898.125 308.734375 C 875.328125 313.515625 859.355469 317.9375 853.074219 320.785156 C 852.914062 321.148438 852.707031 321.492188 852.464844 321.804688 Z M 852.464844 321.804688 " fill-opacity="1" fill-rule="nonzero"/></g></g></g></g><g transform="matrix(1, 0, 0, 1, 249, 140)"><g clip-path="url(#da7d59de5c)"><g clip-path="url(#5f4441b49c)"><g fill="#000000" fill-opacity="1"><g transform="translate(3.521999, 232.788301)"><g><path d="M 227.09375 -53.234375 C 227.863281 -52.140625 228.132812 -51.007812 227.90625 -49.84375 C 227.675781 -48.6875 227.015625 -47.722656 225.921875 -46.953125 C 201.910156 -29.753906 179.988281 -13.484375 160.15625 1.859375 C 162.164062 8.210938 162.394531 15.1875 160.84375 22.78125 C 158.363281 35.945312 153.90625 48.222656 147.46875 59.609375 C 141.039062 71.003906 133.523438 81.390625 124.921875 90.765625 C 116.328125 100.140625 107.34375 108.195312 97.96875 114.9375 C 88.59375 121.675781 79.644531 126.941406 71.125 130.734375 C 62.601562 134.535156 55.242188 136.671875 49.046875 137.140625 C 48.117188 137.296875 47.265625 137.375 46.484375 137.375 C 41.679688 137.375 38.269531 136.40625 36.25 134.46875 C 34.238281 132.53125 32.925781 130.707031 32.3125 129 C 28.75 119.238281 37.078125 103.160156 57.296875 80.765625 C 77.515625 58.378906 108.15625 31.144531 149.21875 -0.9375 C 144.101562 -10.070312 133.835938 -18.515625 118.421875 -26.265625 C 103.003906 -34.015625 82.585938 -43.003906 57.171875 -53.234375 C 54.234375 -54.472656 51.210938 -55.710938 48.109375 -56.953125 C 45.015625 -58.191406 41.835938 -59.507812 38.578125 -60.90625 C 27.421875 -65.550781 19.671875 -71.820312 15.328125 -79.71875 C 10.992188 -87.625 10.457031 -96.691406 13.71875 -106.921875 C 16.195312 -114.828125 20.535156 -122.882812 26.734375 -131.09375 C 32.929688 -139.300781 40.445312 -147.472656 49.28125 -155.609375 C 58.113281 -163.742188 67.71875 -171.492188 78.09375 -178.859375 C 88.476562 -186.222656 99.09375 -192.925781 109.9375 -198.96875 C 120.789062 -205.007812 131.40625 -210.117188 141.78125 -214.296875 C 152.164062 -218.484375 161.734375 -221.429688 170.484375 -223.140625 C 179.242188 -224.847656 186.644531 -225.003906 192.6875 -223.609375 C 195.164062 -222.984375 197.914062 -221.816406 200.9375 -220.109375 C 203.957031 -218.410156 206.359375 -215.660156 208.140625 -211.859375 C 209.929688 -208.066406 210.4375 -202.835938 209.65625 -196.171875 C 209.34375 -194.929688 208.722656 -193.960938 207.796875 -193.265625 C 206.867188 -192.566406 205.785156 -192.296875 204.546875 -192.453125 C 203.304688 -192.609375 202.296875 -193.191406 201.515625 -194.203125 C 200.742188 -195.210938 200.4375 -196.335938 200.59375 -197.578125 C 201.519531 -204.078125 200.820312 -208.410156 198.5 -210.578125 C 196.175781 -212.753906 193.617188 -214.148438 190.828125 -214.765625 C 184.941406 -216.160156 177.15625 -215.695312 167.46875 -213.375 C 157.78125 -211.050781 146.972656 -207.140625 135.046875 -201.640625 C 123.117188 -196.140625 110.878906 -189.359375 98.328125 -181.296875 C 84.992188 -172.929688 73.019531 -164.210938 62.40625 -155.140625 C 51.789062 -146.078125 43.035156 -137.207031 36.140625 -128.53125 C 29.242188 -119.851562 24.632812 -111.796875 22.3125 -104.359375 C 17.195312 -88.398438 23.785156 -76.625 42.078125 -69.03125 C 45.328125 -67.789062 48.460938 -66.550781 51.484375 -65.3125 C 54.503906 -64.070312 57.566406 -62.832031 60.671875 -61.59375 C 76.316406 -55.238281 90.53125 -49.234375 103.3125 -43.578125 C 116.101562 -37.921875 127.03125 -32.148438 136.09375 -26.265625 C 145.15625 -20.378906 151.9375 -13.796875 156.4375 -6.515625 C 175.957031 -21.691406 197.414062 -37.570312 220.8125 -54.15625 C 221.894531 -54.925781 223.015625 -55.195312 224.171875 -54.96875 C 225.335938 -54.738281 226.3125 -54.160156 227.09375 -53.234375 Z M 152.25 20.921875 C 153.175781 16.273438 153.253906 11.9375 152.484375 7.90625 C 119.472656 33.78125 93.285156 56.554688 73.921875 76.234375 C 62.609375 87.859375 53.925781 98.203125 47.875 107.265625 C 41.832031 116.335938 39.429688 122.578125 40.671875 125.984375 C 41.140625 127.222656 42.222656 127.957031 43.921875 128.1875 C 45.628906 128.414062 47.101562 128.457031 48.34375 128.3125 C 53.457031 128 59.890625 126.0625 67.640625 122.5 C 75.390625 118.9375 83.601562 114.015625 92.28125 107.734375 C 100.957031 101.460938 109.398438 93.984375 117.609375 85.296875 C 125.828125 76.617188 133.035156 66.859375 139.234375 56.015625 C 145.429688 45.171875 149.769531 33.472656 152.25 20.921875 Z M 152.25 20.921875 "/></g></g></g></g><g fill="#000000" fill-opacity="1"><g transform="translate(221.482145, 232.788301)"><g><path d="M 84.140625 -50.671875 C 85.222656 -49.898438 85.84375 -48.894531 86 -47.65625 C 86.15625 -46.414062 85.847656 -45.328125 85.078125 -44.390625 C 81.046875 -39.273438 76.351562 -34.703125 71 -30.671875 C 65.65625 -26.648438 60.078125 -23.671875 54.265625 -21.734375 C 48.460938 -19.796875 42.847656 -19.445312 37.421875 -20.6875 C 35.253906 -15.257812 32.191406 -11.070312 28.234375 -8.125 C 24.285156 -5.1875 20.296875 -3.71875 16.265625 -3.71875 C 16.265625 -3.71875 16.222656 -3.71875 16.140625 -3.71875 C 16.066406 -3.71875 16.03125 -3.71875 16.03125 -3.71875 C 11.851562 -3.875 8.175781 -5.304688 5 -8.015625 C 1.820312 -10.734375 -0.382812 -14.492188 -1.625 -19.296875 C -3.019531 -24.710938 -3.253906 -29.863281 -2.328125 -34.75 C -1.398438 -39.632812 0.300781 -43.9375 2.78125 -47.65625 C 5.269531 -51.375 8.0625 -54.238281 11.15625 -56.25 C 12.238281 -57.019531 13.476562 -57.175781 14.875 -56.71875 C 16.269531 -60.125 18.242188 -62.753906 20.796875 -64.609375 C 23.359375 -66.472656 26.035156 -67.171875 28.828125 -66.703125 C 30.523438 -66.398438 32.378906 -65.359375 34.390625 -63.578125 C 36.410156 -61.796875 38.039062 -58.617188 39.28125 -54.046875 C 40.519531 -49.472656 40.90625 -42.769531 40.4375 -33.9375 C 40.289062 -32.382812 40.0625 -30.832031 39.75 -29.28125 C 43.925781 -28.507812 48.335938 -28.972656 52.984375 -30.671875 C 57.640625 -32.378906 62.132812 -34.976562 66.46875 -38.46875 C 70.8125 -41.957031 74.609375 -45.789062 77.859375 -49.96875 C 78.640625 -50.90625 79.648438 -51.445312 80.890625 -51.59375 C 82.128906 -51.75 83.210938 -51.441406 84.140625 -50.671875 Z M 16.265625 -12.78125 C 18.285156 -12.78125 20.535156 -13.707031 23.015625 -15.5625 C 25.492188 -17.425781 27.507812 -20.21875 29.0625 -23.9375 C 23.476562 -27.039062 19.484375 -30.601562 17.078125 -34.625 C 14.679688 -38.65625 13.40625 -42.6875 13.25 -46.71875 C 10 -43.625 7.867188 -39.671875 6.859375 -34.859375 C 5.847656 -30.054688 5.882812 -25.71875 6.96875 -21.84375 C 7.4375 -20.144531 8.367188 -18.207031 9.765625 -16.03125 C 11.160156 -13.863281 13.328125 -12.78125 16.265625 -12.78125 Z M 31.375 -34.40625 C 31.6875 -40.601562 31.570312 -45.40625 31.03125 -48.8125 C 30.488281 -52.21875 29.828125 -54.539062 29.046875 -55.78125 C 28.273438 -57.019531 27.734375 -57.71875 27.421875 -57.875 C 27.265625 -57.875 27.1875 -57.875 27.1875 -57.875 C 26.726562 -57.875 26.03125 -57.410156 25.09375 -56.484375 C 24.164062 -55.554688 23.394531 -54.160156 22.78125 -52.296875 C 21.851562 -49.347656 21.929688 -46.128906 23.015625 -42.640625 C 24.097656 -39.160156 26.882812 -35.945312 31.375 -33 C 31.375 -33.46875 31.375 -33.9375 31.375 -34.40625 Z M 31.375 -34.40625 "/></g></g></g><g fill="#000000" fill-opacity="1"><g transform="translate(295.839551, 232.788301)"><g><path d="M 68.34375 -217.796875 C 70.351562 -214.847656 70.390625 -208.878906 68.453125 -199.890625 C 66.515625 -190.910156 62.523438 -179.796875 56.484375 -166.546875 C 50.441406 -153.296875 42.382812 -138.613281 32.3125 -122.5 C 32.15625 -122.34375 32 -122.1875 31.84375 -122.03125 C 27.8125 -105.601562 23.820312 -88.863281 19.875 -71.8125 C 15.925781 -54.769531 12.164062 -38.035156 8.59375 -21.609375 C 5.03125 -5.191406 1.78125 10.257812 -1.15625 24.75 C -4.101562 39.238281 -6.625 52.140625 -8.71875 63.453125 C -10.8125 74.765625 -12.320312 83.832031 -13.25 90.65625 C -13.09375 90.65625 -12.9375 90.65625 -12.78125 90.65625 C -11.539062 91.113281 -10.648438 91.882812 -10.109375 92.96875 C -9.566406 94.0625 -9.53125 95.226562 -10 96.46875 C -11.082031 99.40625 -12.203125 102.070312 -13.359375 104.46875 C -14.523438 106.875 -16.113281 108.078125 -18.125 108.078125 C -18.59375 108.078125 -19.132812 108 -19.75 107.84375 C -21.144531 107.382812 -22.148438 106.414062 -22.765625 104.9375 C -23.390625 103.46875 -23.46875 100.523438 -23 96.109375 C -22.539062 91.691406 -21.535156 84.914062 -19.984375 75.78125 C -17.203125 59.039062 -13.019531 37.191406 -7.4375 10.234375 C -3.40625 -8.671875 0.816406 -27.925781 5.234375 -47.53125 C 9.648438 -67.132812 14.023438 -86.039062 18.359375 -104.25 C 22.703125 -122.457031 26.890625 -139 30.921875 -153.875 C 31.691406 -156.820312 32.847656 -160.925781 34.390625 -166.1875 C 35.941406 -171.457031 37.722656 -177.113281 39.734375 -183.15625 C 41.753906 -189.195312 44.003906 -195.007812 46.484375 -200.59375 C 48.960938 -206.175781 51.519531 -210.785156 54.15625 -214.421875 C 56.789062 -218.066406 59.425781 -220.117188 62.0625 -220.578125 C 64.695312 -221.046875 66.789062 -220.117188 68.34375 -217.796875 Z M 39.984375 -153.171875 C 47.421875 -167.117188 52.648438 -178.738281 55.671875 -188.03125 C 58.691406 -197.332031 60.4375 -204.078125 60.90625 -208.265625 C 58.726562 -205.160156 55.78125 -199.304688 52.0625 -190.703125 C 48.34375 -182.109375 44.316406 -169.597656 39.984375 -153.171875 Z M 39.984375 -153.171875 "/></g></g></g><g fill="#000000" fill-opacity="1"><g transform="translate(331.159318, 232.788301)"><g><path d="M 97.390625 -51.59375 C 98.472656 -51.132812 99.207031 -50.320312 99.59375 -49.15625 C 99.988281 -48 99.953125 -46.878906 99.484375 -45.796875 C 96.535156 -39.742188 93.316406 -33.695312 89.828125 -27.65625 C 86.347656 -21.613281 82.707031 -16.070312 78.90625 -11.03125 C 75.113281 -6 71.203125 -1.972656 67.171875 1.046875 C 63.140625 4.066406 59.113281 5.578125 55.09375 5.578125 C 54.3125 5.578125 53.457031 5.5 52.53125 5.34375 C 42.144531 3.332031 35.710938 -10.613281 33.234375 -36.5 C 30.597656 -32.925781 27.535156 -28.929688 24.046875 -24.515625 C 20.566406 -20.097656 16.890625 -15.722656 13.015625 -11.390625 C 12.398438 -10.765625 11.394531 -9.796875 10 -8.484375 C 8.601562 -7.171875 6.972656 -6.125 5.109375 -5.34375 C 3.253906 -4.570312 1.394531 -4.648438 -0.46875 -5.578125 C -4.1875 -6.972656 -5.96875 -11.003906 -5.8125 -17.671875 C -5.8125 -21.535156 -5.070312 -26.332031 -3.59375 -32.0625 C -2.125 -37.800781 -0.0351562 -43.578125 2.671875 -49.390625 C 5.378906 -55.203125 8.554688 -60.351562 12.203125 -64.84375 C 15.847656 -69.34375 19.914062 -72.367188 24.40625 -73.921875 C 27.195312 -75.003906 30.601562 -75.195312 34.625 -74.5 C 38.65625 -73.800781 42.84375 -70.894531 47.1875 -65.78125 C 47.957031 -64.851562 48.300781 -63.769531 48.21875 -62.53125 C 48.144531 -61.289062 47.644531 -60.28125 46.71875 -59.5 C 45.789062 -58.726562 44.707031 -58.378906 43.46875 -58.453125 C 42.226562 -58.535156 41.21875 -59.039062 40.4375 -59.96875 C 36.71875 -64.3125 33.503906 -66.363281 30.796875 -66.125 C 28.085938 -65.894531 25.800781 -65.082031 23.9375 -63.6875 C 20.53125 -61.207031 17.429688 -57.640625 14.640625 -52.984375 C 11.847656 -48.335938 9.519531 -43.457031 7.65625 -38.34375 C 5.800781 -33.238281 4.488281 -28.476562 3.71875 -24.0625 C 2.945312 -19.644531 2.710938 -16.425781 3.015625 -14.40625 C 3.484375 -14.71875 3.988281 -15.101562 4.53125 -15.5625 C 5.070312 -16.03125 5.65625 -16.65625 6.28125 -17.4375 C 10.925781 -22.550781 15.1875 -27.625 19.0625 -32.65625 C 22.9375 -37.695312 26.269531 -42.148438 29.0625 -46.015625 C 29.832031 -47.109375 30.566406 -48.15625 31.265625 -49.15625 C 31.960938 -50.164062 32.617188 -51.054688 33.234375 -51.828125 C 34.472656 -53.378906 36.101562 -53.847656 38.125 -53.234375 C 40.132812 -52.765625 41.21875 -51.445312 41.375 -49.28125 C 41.84375 -39.207031 42.65625 -31.109375 43.8125 -24.984375 C 44.976562 -18.867188 46.253906 -14.296875 47.640625 -11.265625 C 49.035156 -8.242188 50.351562 -6.191406 51.59375 -5.109375 C 52.832031 -4.023438 53.765625 -3.484375 54.390625 -3.484375 C 57.335938 -2.867188 62.0625 -5.890625 68.5625 -12.546875 C 75.070312 -19.210938 82.664062 -31.535156 91.34375 -49.515625 C 91.96875 -50.753906 92.859375 -51.566406 94.015625 -51.953125 C 95.179688 -52.335938 96.304688 -52.21875 97.390625 -51.59375 Z M 97.390625 -51.59375 "/></g></g></g><g fill="#000000" fill-opacity="1"><g transform="translate(417.599802, 232.788301)"><g><path d="M 102.046875 -52.765625 C 103.128906 -52.140625 103.898438 -51.242188 104.359375 -50.078125 C 104.828125 -48.921875 104.75 -47.800781 104.125 -46.71875 C 101.1875 -40.363281 97.585938 -33.234375 93.328125 -25.328125 C 89.066406 -17.429688 84.53125 -9.492188 79.71875 -1.515625 C 74.914062 6.460938 70.035156 13.742188 65.078125 20.328125 C 60.117188 26.921875 55.316406 32.269531 50.671875 36.375 C 46.023438 40.476562 41.84375 42.53125 38.125 42.53125 C 37.039062 42.53125 36.03125 42.300781 35.09375 41.84375 C 31.84375 40.601562 29.710938 37.65625 28.703125 33 C 27.691406 28.351562 27.8125 21.691406 29.0625 13.015625 C 31.226562 -2.628906 36.957031 -24.785156 46.25 -53.453125 C 46.09375 -53.453125 45.976562 -53.414062 45.90625 -53.34375 C 45.832031 -53.269531 45.71875 -53.234375 45.5625 -53.234375 C 42.457031 -51.054688 38.734375 -48.804688 34.390625 -46.484375 C 30.054688 -44.160156 25.566406 -42.609375 20.921875 -41.828125 C 16.273438 -41.054688 11.859375 -42.066406 7.671875 -44.859375 C 1.785156 -49.046875 -1.234375 -54.859375 -1.390625 -62.296875 C -1.546875 -69.734375 1.238281 -77.867188 6.96875 -86.703125 C 8.832031 -89.492188 11.273438 -92.59375 14.296875 -96 C 17.316406 -99.40625 20.492188 -102.035156 23.828125 -103.890625 C 27.160156 -105.753906 30.144531 -105.832031 32.78125 -104.125 C 34.164062 -103.351562 35.207031 -102.035156 35.90625 -100.171875 C 36.601562 -98.316406 36.566406 -95.453125 35.796875 -91.578125 C 35.023438 -87.703125 33.164062 -82.507812 30.21875 -76 C 27.269531 -69.5 22.851562 -61.054688 16.96875 -50.671875 C 20.53125 -50.203125 24.519531 -51.207031 28.9375 -53.6875 C 33.351562 -56.164062 37.265625 -58.492188 40.671875 -60.671875 C 43.929688 -62.835938 46.644531 -64.421875 48.8125 -65.421875 C 50.976562 -66.429688 52.992188 -66.238281 54.859375 -64.84375 C 56.554688 -63.457031 57.25 -61.753906 56.9375 -59.734375 C 56.632812 -57.722656 56.328125 -56.175781 56.015625 -55.09375 C 50.898438 -38.976562 46.945312 -25.570312 44.15625 -14.875 C 41.375 -4.1875 39.476562 4.410156 38.46875 10.921875 C 37.457031 17.429688 36.953125 22.3125 36.953125 25.5625 C 36.953125 28.820312 37.1875 30.953125 37.65625 31.953125 C 38.125 32.960938 38.359375 33.546875 38.359375 33.703125 C 40.210938 34.015625 44.046875 31.03125 49.859375 24.75 C 55.671875 18.476562 62.601562 9.03125 70.65625 -3.59375 C 78.71875 -16.226562 87.164062 -31.84375 96 -50.4375 C 96.613281 -51.675781 97.5 -52.488281 98.65625 -52.875 C 99.820312 -53.257812 100.953125 -53.222656 102.046875 -52.765625 Z M 8.375 -68.5625 C 7.4375 -65.3125 7.160156 -62.640625 7.546875 -60.546875 C 7.941406 -58.453125 8.523438 -56.785156 9.296875 -55.546875 C 14.253906 -64.222656 18.007812 -71.273438 20.5625 -76.703125 C 23.125 -82.128906 24.867188 -86.3125 25.796875 -89.25 C 26.722656 -92.195312 27.265625 -94.289062 27.421875 -95.53125 C 25.722656 -94.601562 23.59375 -92.820312 21.03125 -90.1875 C 18.476562 -87.550781 16 -84.375 13.59375 -80.65625 C 11.195312 -76.9375 9.457031 -72.90625 8.375 -68.5625 Z M 8.375 -68.5625 "/></g></g></g><g fill="#000000" fill-opacity="1"><g transform="translate(510.314192, 232.788301)"><g><path d="M 97.390625 -51.59375 C 98.472656 -51.132812 99.207031 -50.320312 99.59375 -49.15625 C 99.988281 -48 99.953125 -46.878906 99.484375 -45.796875 C 96.535156 -39.742188 93.316406 -33.695312 89.828125 -27.65625 C 86.347656 -21.613281 82.707031 -16.070312 78.90625 -11.03125 C 75.113281 -6 71.203125 -1.972656 67.171875 1.046875 C 63.140625 4.066406 59.113281 5.578125 55.09375 5.578125 C 54.3125 5.578125 53.457031 5.5 52.53125 5.34375 C 42.144531 3.332031 35.710938 -10.613281 33.234375 -36.5 C 30.597656 -32.925781 27.535156 -28.929688 24.046875 -24.515625 C 20.566406 -20.097656 16.890625 -15.722656 13.015625 -11.390625 C 12.398438 -10.765625 11.394531 -9.796875 10 -8.484375 C 8.601562 -7.171875 6.972656 -6.125 5.109375 -5.34375 C 3.253906 -4.570312 1.394531 -4.648438 -0.46875 -5.578125 C -4.1875 -6.972656 -5.96875 -11.003906 -5.8125 -17.671875 C -5.8125 -21.535156 -5.070312 -26.332031 -3.59375 -32.0625 C -2.125 -37.800781 -0.0351562 -43.578125 2.671875 -49.390625 C 5.378906 -55.203125 8.554688 -60.351562 12.203125 -64.84375 C 15.847656 -69.34375 19.914062 -72.367188 24.40625 -73.921875 C 27.195312 -75.003906 30.601562 -75.195312 34.625 -74.5 C 38.65625 -73.800781 42.84375 -70.894531 47.1875 -65.78125 C 47.957031 -64.851562 48.300781 -63.769531 48.21875 -62.53125 C 48.144531 -61.289062 47.644531 -60.28125 46.71875 -59.5 C 45.789062 -58.726562 44.707031 -58.378906 43.46875 -58.453125 C 42.226562 -58.535156 41.21875 -59.039062 40.4375 -59.96875 C 36.71875 -64.3125 33.503906 -66.363281 30.796875 -66.125 C 28.085938 -65.894531 25.800781 -65.082031 23.9375 -63.6875 C 20.53125 -61.207031 17.429688 -57.640625 14.640625 -52.984375 C 11.847656 -48.335938 9.519531 -43.457031 7.65625 -38.34375 C 5.800781 -33.238281 4.488281 -28.476562 3.71875 -24.0625 C 2.945312 -19.644531 2.710938 -16.425781 3.015625 -14.40625 C 3.484375 -14.71875 3.988281 -15.101562 4.53125 -15.5625 C 5.070312 -16.03125 5.65625 -16.65625 6.28125 -17.4375 C 10.925781 -22.550781 15.1875 -27.625 19.0625 -32.65625 C 22.9375 -37.695312 26.269531 -42.148438 29.0625 -46.015625 C 29.832031 -47.109375 30.566406 -48.15625 31.265625 -49.15625 C 31.960938 -50.164062 32.617188 -51.054688 33.234375 -51.828125 C 34.472656 -53.378906 36.101562 -53.847656 38.125 -53.234375 C 40.132812 -52.765625 41.21875 -51.445312 41.375 -49.28125 C 41.84375 -39.207031 42.65625 -31.109375 43.8125 -24.984375 C 44.976562 -18.867188 46.253906 -14.296875 47.640625 -11.265625 C 49.035156 -8.242188 50.351562 -6.191406 51.59375 -5.109375 C 52.832031 -4.023438 53.765625 -3.484375 54.390625 -3.484375 C 57.335938 -2.867188 62.0625 -5.890625 68.5625 -12.546875 C 75.070312 -19.210938 82.664062 -31.535156 91.34375 -49.515625 C 91.96875 -50.753906 92.859375 -51.566406 94.015625 -51.953125 C 95.179688 -52.335938 96.304688 -52.21875 97.390625 -51.59375 Z M 97.390625 -51.59375 "/></g></g></g></g></g><g transform="matrix(1, 0, 0, 1, 323, 507)"><g clip-path="url(#39894ef2cb)"><g fill="#000000" fill-opacity="1"><g transform="translate(1.906583, 55.095512)"><g><path d="M 1.96875 -35.859375 C 2.75 -35.816406 3.753906 -35.78125 4.984375 -35.75 C 6.222656 -35.71875 7.445312 -35.703125 8.65625 -35.703125 C 10.28125 -35.703125 11.828125 -35.71875 13.296875 -35.75 C 14.765625 -35.78125 15.800781 -35.796875 16.40625 -35.796875 C 20.695312 -35.796875 23.90625 -34.867188 26.03125 -33.015625 C 28.15625 -31.160156 29.21875 -28.765625 29.21875 -25.828125 C 29.21875 -24.609375 29.003906 -23.332031 28.578125 -22 C 28.160156 -20.664062 27.425781 -19.429688 26.375 -18.296875 C 25.332031 -17.171875 23.914062 -16.253906 22.125 -15.546875 C 20.34375 -14.835938 18.066406 -14.484375 15.296875 -14.484375 L 10.328125 -14.484375 L 10.328125 -15.5 L 14.78125 -15.5 C 17.050781 -15.5 18.785156 -15.953125 19.984375 -16.859375 C 21.179688 -17.773438 21.988281 -18.972656 22.40625 -20.453125 C 22.832031 -21.941406 23.046875 -23.546875 23.046875 -25.265625 C 23.046875 -28.472656 22.46875 -30.867188 21.3125 -32.453125 C 20.164062 -34.046875 18.175781 -34.84375 15.34375 -34.84375 C 13.894531 -34.84375 12.941406 -34.554688 12.484375 -33.984375 C 12.023438 -33.410156 11.796875 -32.242188 11.796875 -30.484375 L 11.796875 -5.46875 C 11.796875 -4.21875 11.929688 -3.28125 12.203125 -2.65625 C 12.472656 -2.03125 12.976562 -1.613281 13.71875 -1.40625 C 14.46875 -1.207031 15.566406 -1.09375 17.015625 -1.0625 L 17.015625 0 C 16.097656 -0.0625 14.914062 -0.101562 13.46875 -0.125 C 12.019531 -0.144531 10.519531 -0.15625 8.96875 -0.15625 C 7.613281 -0.15625 6.316406 -0.144531 5.078125 -0.125 C 3.847656 -0.101562 2.8125 -0.0625 1.96875 0 L 1.96875 -1.015625 C 3.125 -1.078125 3.988281 -1.207031 4.5625 -1.40625 C 5.132812 -1.613281 5.507812 -2.019531 5.6875 -2.625 C 5.875 -3.238281 5.96875 -4.15625 5.96875 -5.375 L 5.96875 -30.484375 C 5.96875 -31.734375 5.875 -32.648438 5.6875 -33.234375 C 5.507812 -33.828125 5.125 -34.234375 4.53125 -34.453125 C 3.9375 -34.679688 3.082031 -34.8125 1.96875 -34.84375 Z M 1.96875 -35.859375 "/></g></g></g><g fill="#000000" fill-opacity="1"><g transform="translate(43.773569, 55.095512)"><g><path d="M 1.96875 -35.859375 C 2.75 -35.816406 3.753906 -35.78125 4.984375 -35.75 C 6.222656 -35.71875 7.445312 -35.703125 8.65625 -35.703125 C 10.28125 -35.703125 11.828125 -35.71875 13.296875 -35.75 C 14.765625 -35.78125 15.800781 -35.796875 16.40625 -35.796875 C 19.28125 -35.796875 21.671875 -35.425781 23.578125 -34.6875 C 25.484375 -33.945312 26.898438 -32.910156 27.828125 -31.578125 C 28.753906 -30.242188 29.21875 -28.710938 29.21875 -26.984375 C 29.21875 -25.941406 29.003906 -24.835938 28.578125 -23.671875 C 28.160156 -22.503906 27.425781 -21.421875 26.375 -20.421875 C 25.332031 -19.429688 23.914062 -18.613281 22.125 -17.96875 C 20.34375 -17.332031 18.066406 -17.015625 15.296875 -17.015625 L 10.4375 -17.015625 L 10.4375 -18.03125 L 14.78125 -18.03125 C 17.050781 -18.03125 18.785156 -18.410156 19.984375 -19.171875 C 21.179688 -19.929688 21.988281 -20.941406 22.40625 -22.203125 C 22.832031 -23.472656 23.046875 -24.882812 23.046875 -26.4375 C 23.046875 -29.101562 22.46875 -31.171875 21.3125 -32.640625 C 20.164062 -34.109375 18.175781 -34.84375 15.34375 -34.84375 C 13.894531 -34.84375 12.941406 -34.554688 12.484375 -33.984375 C 12.023438 -33.410156 11.796875 -32.242188 11.796875 -30.484375 L 11.796875 -5.375 C 11.796875 -4.15625 11.894531 -3.238281 12.09375 -2.625 C 12.300781 -2.019531 12.691406 -1.613281 13.265625 -1.40625 C 13.835938 -1.207031 14.679688 -1.078125 15.796875 -1.015625 L 15.796875 0 C 14.984375 -0.0625 13.960938 -0.101562 12.734375 -0.125 C 11.503906 -0.144531 10.25 -0.15625 8.96875 -0.15625 C 7.550781 -0.15625 6.222656 -0.144531 4.984375 -0.125 C 3.753906 -0.101562 2.75 -0.0625 1.96875 0 L 1.96875 -1.015625 C 3.125 -1.078125 3.988281 -1.207031 4.5625 -1.40625 C 5.132812 -1.613281 5.507812 -2.019531 5.6875 -2.625 C 5.875 -3.238281 5.96875 -4.15625 5.96875 -5.375 L 5.96875 -30.484375 C 5.96875 -31.734375 5.875 -32.648438 5.6875 -33.234375 C 5.507812 -33.828125 5.125 -34.234375 4.53125 -34.453125 C 3.9375 -34.679688 3.082031 -34.8125 1.96875 -34.84375 Z M 10.53125 -17.875 C 12.25 -17.8125 13.628906 -17.734375 14.671875 -17.640625 C 15.722656 -17.554688 16.601562 -17.476562 17.3125 -17.40625 C 18.019531 -17.34375 18.679688 -17.265625 19.296875 -17.171875 C 21.828125 -16.828125 23.675781 -16.148438 24.84375 -15.140625 C 26.007812 -14.128906 26.8125 -12.578125 27.25 -10.484375 L 28.515625 -5.3125 C 28.816406 -3.863281 29.144531 -2.832031 29.5 -2.21875 C 29.851562 -1.613281 30.382812 -1.3125 31.09375 -1.3125 C 31.632812 -1.351562 32.082031 -1.515625 32.4375 -1.796875 C 32.789062 -2.085938 33.171875 -2.484375 33.578125 -2.984375 L 34.28125 -2.4375 C 33.507812 -1.382812 32.703125 -0.597656 31.859375 -0.078125 C 31.015625 0.441406 29.878906 0.703125 28.453125 0.703125 C 27.003906 0.703125 25.765625 0.328125 24.734375 -0.421875 C 23.703125 -1.179688 22.96875 -2.628906 22.53125 -4.765625 L 21.515625 -9.828125 C 21.210938 -11.273438 20.875 -12.53125 20.5 -13.59375 C 20.132812 -14.65625 19.625 -15.488281 18.96875 -16.09375 C 18.3125 -16.707031 17.359375 -17.015625 16.109375 -17.015625 L 10.640625 -17.015625 Z M 10.53125 -17.875 "/></g></g></g><g fill="#000000" fill-opacity="1"><g transform="translate(88.626425, 55.095512)"><g><path d="M 19.25 -36.5625 C 22.550781 -36.5625 25.457031 -35.832031 27.96875 -34.375 C 30.488281 -32.925781 32.441406 -30.84375 33.828125 -28.125 C 35.210938 -25.40625 35.90625 -22.109375 35.90625 -18.234375 C 35.90625 -14.453125 35.195312 -11.140625 33.78125 -8.296875 C 32.363281 -5.460938 30.382812 -3.253906 27.84375 -1.671875 C 25.3125 -0.0859375 22.425781 0.703125 19.1875 0.703125 C 15.84375 0.703125 12.921875 -0.0195312 10.421875 -1.46875 C 7.929688 -2.914062 5.992188 -5.003906 4.609375 -7.734375 C 3.222656 -10.472656 2.53125 -13.769531 2.53125 -17.625 C 2.53125 -21.40625 3.25 -24.710938 4.6875 -27.546875 C 6.125 -30.378906 8.085938 -32.585938 10.578125 -34.171875 C 13.078125 -35.765625 15.96875 -36.5625 19.25 -36.5625 Z M 19.046875 -35.65625 C 16.953125 -35.65625 15.128906 -34.894531 13.578125 -33.375 C 12.023438 -31.851562 10.820312 -29.757812 9.96875 -27.09375 C 9.125 -24.425781 8.703125 -21.335938 8.703125 -17.828125 C 8.703125 -14.242188 9.175781 -11.125 10.125 -8.46875 C 11.070312 -5.820312 12.351562 -3.78125 13.96875 -2.34375 C 15.59375 -0.914062 17.398438 -0.203125 19.390625 -0.203125 C 21.484375 -0.203125 23.296875 -0.960938 24.828125 -2.484375 C 26.367188 -4.003906 27.566406 -6.101562 28.421875 -8.78125 C 29.285156 -11.46875 29.71875 -14.550781 29.71875 -18.03125 C 29.71875 -21.644531 29.238281 -24.765625 28.28125 -27.390625 C 27.320312 -30.023438 26.039062 -32.0625 24.4375 -33.5 C 22.832031 -34.9375 21.035156 -35.65625 19.046875 -35.65625 Z M 19.046875 -35.65625 "/></g></g></g><g fill="#000000" fill-opacity="1"><g transform="translate(138.287094, 55.095512)"><g><path d="M 16.40625 -35.859375 C 22.65625 -35.859375 27.296875 -34.34375 30.328125 -31.3125 C 33.367188 -28.289062 34.890625 -23.960938 34.890625 -18.328125 C 34.890625 -14.648438 34.144531 -11.4375 32.65625 -8.6875 C 31.175781 -5.9375 29.023438 -3.800781 26.203125 -2.28125 C 23.390625 -0.757812 19.972656 0 15.953125 0 C 15.441406 0 14.753906 -0.015625 13.890625 -0.046875 C 13.035156 -0.078125 12.148438 -0.101562 11.234375 -0.125 C 10.328125 -0.144531 9.503906 -0.15625 8.765625 -0.15625 C 7.484375 -0.15625 6.222656 -0.144531 4.984375 -0.125 C 3.753906 -0.101562 2.75 -0.0625 1.96875 0 L 1.96875 -1.015625 C 3.125 -1.078125 3.988281 -1.207031 4.5625 -1.40625 C 5.132812 -1.613281 5.507812 -2.019531 5.6875 -2.625 C 5.875 -3.238281 5.96875 -4.15625 5.96875 -5.375 L 5.96875 -30.484375 C 5.96875 -31.734375 5.875 -32.648438 5.6875 -33.234375 C 5.507812 -33.828125 5.125 -34.234375 4.53125 -34.453125 C 3.9375 -34.679688 3.082031 -34.8125 1.96875 -34.84375 L 1.96875 -35.859375 C 2.75 -35.816406 3.753906 -35.769531 4.984375 -35.71875 C 6.222656 -35.675781 7.445312 -35.671875 8.65625 -35.703125 C 9.875 -35.734375 11.234375 -35.765625 12.734375 -35.796875 C 14.234375 -35.835938 15.457031 -35.859375 16.40625 -35.859375 Z M 15.546875 -34.9375 C 13.992188 -34.9375 12.976562 -34.648438 12.5 -34.078125 C 12.03125 -33.503906 11.796875 -32.34375 11.796875 -30.59375 L 11.796875 -5.265625 C 11.796875 -3.515625 12.039062 -2.347656 12.53125 -1.765625 C 13.019531 -1.191406 14.039062 -0.90625 15.59375 -0.90625 C 19.007812 -0.90625 21.660156 -1.570312 23.546875 -2.90625 C 25.441406 -4.238281 26.773438 -6.1875 27.546875 -8.75 C 28.328125 -11.320312 28.71875 -14.445312 28.71875 -18.125 C 28.71875 -21.90625 28.296875 -25.035156 27.453125 -27.515625 C 26.609375 -30.003906 25.226562 -31.863281 23.3125 -33.09375 C 21.40625 -34.320312 18.816406 -34.9375 15.546875 -34.9375 Z M 15.546875 -34.9375 "/></g></g></g><g fill="#000000" fill-opacity="1"><g transform="translate(187.087393, 55.095512)"><g><path d="M 33.421875 -35.859375 L 33.421875 -34.84375 C 32.304688 -34.769531 31.460938 -34.566406 30.890625 -34.234375 C 30.316406 -33.898438 29.925781 -33.351562 29.71875 -32.59375 C 29.519531 -31.832031 29.421875 -30.757812 29.421875 -29.375 L 29.421875 -14.734375 C 29.421875 -12.441406 29.269531 -10.398438 28.96875 -8.609375 C 28.664062 -6.816406 28.125 -5.28125 27.34375 -4 C 26.5 -2.582031 25.257812 -1.441406 23.625 -0.578125 C 21.988281 0.273438 20.039062 0.703125 17.78125 0.703125 C 16.15625 0.703125 14.582031 0.515625 13.0625 0.140625 C 11.539062 -0.222656 10.207031 -0.925781 9.0625 -1.96875 C 8.050781 -2.882812 7.257812 -3.878906 6.6875 -4.953125 C 6.113281 -6.035156 5.722656 -7.34375 5.515625 -8.875 C 5.316406 -10.414062 5.21875 -12.316406 5.21875 -14.578125 L 5.21875 -30.484375 C 5.21875 -31.734375 5.125 -32.648438 4.9375 -33.234375 C 4.75 -33.828125 4.367188 -34.234375 3.796875 -34.453125 C 3.222656 -34.679688 2.363281 -34.8125 1.21875 -34.84375 L 1.21875 -35.859375 C 1.988281 -35.816406 2.988281 -35.78125 4.21875 -35.75 C 5.457031 -35.71875 6.785156 -35.703125 8.203125 -35.703125 C 9.484375 -35.703125 10.753906 -35.71875 12.015625 -35.75 C 13.285156 -35.78125 14.328125 -35.816406 15.140625 -35.859375 L 15.140625 -34.84375 C 13.992188 -34.8125 13.125 -34.679688 12.53125 -34.453125 C 11.9375 -34.234375 11.539062 -33.828125 11.34375 -33.234375 C 11.144531 -32.648438 11.046875 -31.734375 11.046875 -30.484375 L 11.046875 -12.96875 C 11.046875 -11.238281 11.132812 -9.648438 11.3125 -8.203125 C 11.5 -6.753906 11.851562 -5.492188 12.375 -4.421875 C 12.90625 -3.359375 13.679688 -2.53125 14.703125 -1.9375 C 15.734375 -1.351562 17.078125 -1.0625 18.734375 -1.0625 C 21.234375 -1.0625 23.164062 -1.625 24.53125 -2.75 C 25.90625 -3.882812 26.867188 -5.4375 27.421875 -7.40625 C 27.972656 -9.382812 28.25 -11.640625 28.25 -14.171875 L 28.25 -29.171875 C 28.25 -30.617188 28.113281 -31.726562 27.84375 -32.5 C 27.582031 -33.28125 27.113281 -33.847656 26.4375 -34.203125 C 25.757812 -34.554688 24.796875 -34.769531 23.546875 -34.84375 L 23.546875 -35.859375 C 24.191406 -35.816406 25.019531 -35.78125 26.03125 -35.75 C 27.039062 -35.71875 27.96875 -35.703125 28.8125 -35.703125 C 29.6875 -35.703125 30.535156 -35.71875 31.359375 -35.75 C 32.191406 -35.78125 32.878906 -35.816406 33.421875 -35.859375 Z M 33.421875 -35.859375 "/></g></g></g><g fill="#000000" fill-opacity="1"><g transform="translate(233.003024, 55.095512)"><g><path d="M 19.25 -36.5625 C 21.46875 -36.5625 23.296875 -36.234375 24.734375 -35.578125 C 26.171875 -34.921875 27.445312 -34.148438 28.5625 -33.265625 C 29.238281 -32.765625 29.753906 -32.707031 30.109375 -33.09375 C 30.460938 -33.476562 30.707031 -34.398438 30.84375 -35.859375 L 32 -35.859375 C 31.9375 -34.566406 31.882812 -33.019531 31.84375 -31.21875 C 31.8125 -29.414062 31.796875 -27.007812 31.796875 -24 L 30.640625 -24 C 30.398438 -25.488281 30.171875 -26.703125 29.953125 -27.640625 C 29.734375 -28.585938 29.445312 -29.398438 29.09375 -30.078125 C 28.738281 -30.753906 28.257812 -31.414062 27.65625 -32.0625 C 26.675781 -33.269531 25.472656 -34.144531 24.046875 -34.6875 C 22.628906 -35.226562 21.128906 -35.5 19.546875 -35.5 C 17.828125 -35.5 16.304688 -35.066406 14.984375 -34.203125 C 13.671875 -33.347656 12.566406 -32.125 11.671875 -30.53125 C 10.773438 -28.945312 10.085938 -27.070312 9.609375 -24.90625 C 9.140625 -22.75 8.90625 -20.390625 8.90625 -17.828125 C 8.90625 -15.191406 9.160156 -12.800781 9.671875 -10.65625 C 10.179688 -8.507812 10.914062 -6.664062 11.875 -5.125 C 12.832031 -3.59375 13.992188 -2.414062 15.359375 -1.59375 C 16.734375 -0.769531 18.265625 -0.359375 19.953125 -0.359375 C 21.335938 -0.359375 22.769531 -0.632812 24.25 -1.1875 C 25.738281 -1.75 26.921875 -2.601562 27.796875 -3.75 C 28.742188 -4.757812 29.394531 -5.894531 29.75 -7.15625 C 30.101562 -8.425781 30.398438 -10.160156 30.640625 -12.359375 L 31.796875 -12.359375 C 31.796875 -9.253906 31.8125 -6.742188 31.84375 -4.828125 C 31.882812 -2.921875 31.9375 -1.3125 32 0 L 30.84375 0 C 30.707031 -1.445312 30.476562 -2.359375 30.15625 -2.734375 C 29.832031 -3.109375 29.300781 -3.054688 28.5625 -2.578125 C 27.3125 -1.703125 25.984375 -0.9375 24.578125 -0.28125 C 23.179688 0.375 21.382812 0.703125 19.1875 0.703125 C 15.84375 0.703125 12.921875 -0.0195312 10.421875 -1.46875 C 7.929688 -2.914062 5.992188 -5.003906 4.609375 -7.734375 C 3.222656 -10.472656 2.53125 -13.769531 2.53125 -17.625 C 2.53125 -21.40625 3.25 -24.710938 4.6875 -27.546875 C 6.125 -30.378906 8.085938 -32.585938 10.578125 -34.171875 C 13.078125 -35.765625 15.96875 -36.5625 19.25 -36.5625 Z M 19.25 -36.5625 "/></g></g></g><g fill="#000000" fill-opacity="1"><g transform="translate(279.424767, 55.095512)"><g><path d="M 30.84375 -35.859375 C 30.707031 -34.441406 30.613281 -33.0625 30.5625 -31.71875 C 30.507812 -30.382812 30.484375 -29.363281 30.484375 -28.65625 C 30.484375 -27.882812 30.5 -27.144531 30.53125 -26.4375 C 30.570312 -25.726562 30.609375 -25.117188 30.640625 -24.609375 L 29.46875 -24.609375 C 29.132812 -27.140625 28.6875 -29.128906 28.125 -30.578125 C 27.570312 -32.035156 26.769531 -33.082031 25.71875 -33.71875 C 24.675781 -34.363281 23.175781 -34.6875 21.21875 -34.6875 L 19.046875 -34.6875 L 19.046875 -5.828125 C 19.046875 -4.472656 19.171875 -3.457031 19.421875 -2.78125 C 19.671875 -2.101562 20.175781 -1.65625 20.9375 -1.4375 C 21.695312 -1.21875 22.800781 -1.078125 24.25 -1.015625 L 24.25 0 C 23.3125 -0.0625 22.097656 -0.101562 20.609375 -0.125 C 19.117188 -0.144531 17.597656 -0.15625 16.046875 -0.15625 C 14.429688 -0.15625 12.90625 -0.144531 11.46875 -0.125 C 10.03125 -0.101562 8.875 -0.0625 8 0 L 8 -1.015625 C 9.445312 -1.078125 10.539062 -1.21875 11.28125 -1.4375 C 12.03125 -1.65625 12.539062 -2.101562 12.8125 -2.78125 C 13.082031 -3.457031 13.21875 -4.472656 13.21875 -5.828125 L 13.21875 -34.6875 L 10.984375 -34.6875 C 9.097656 -34.6875 7.613281 -34.363281 6.53125 -33.71875 C 5.445312 -33.082031 4.632812 -32.035156 4.09375 -30.578125 C 3.5625 -29.128906 3.125 -27.140625 2.78125 -24.609375 L 1.625 -24.609375 C 1.6875 -25.117188 1.722656 -25.726562 1.734375 -26.4375 C 1.753906 -27.144531 1.765625 -27.882812 1.765625 -28.65625 C 1.765625 -29.363281 1.738281 -30.382812 1.6875 -31.71875 C 1.644531 -33.0625 1.554688 -34.441406 1.421875 -35.859375 C 2.867188 -35.816406 4.453125 -35.78125 6.171875 -35.75 C 7.898438 -35.71875 9.640625 -35.703125 11.390625 -35.703125 C 13.148438 -35.703125 14.738281 -35.703125 16.15625 -35.703125 C 17.570312 -35.703125 19.140625 -35.703125 20.859375 -35.703125 C 22.585938 -35.703125 24.328125 -35.71875 26.078125 -35.75 C 27.835938 -35.78125 29.425781 -35.816406 30.84375 -35.859375 Z M 30.84375 -35.859375 "/></g></g></g><g fill="#000000" fill-opacity="1"><g transform="translate(322.961842, 55.095512)"><g><path d="M 15.796875 -35.859375 L 15.796875 -34.84375 C 14.679688 -34.8125 13.835938 -34.679688 13.265625 -34.453125 C 12.691406 -34.234375 12.300781 -33.828125 12.09375 -33.234375 C 11.894531 -32.648438 11.796875 -31.734375 11.796875 -30.484375 L 11.796875 -5.375 C 11.796875 -4.15625 11.894531 -3.238281 12.09375 -2.625 C 12.300781 -2.019531 12.691406 -1.613281 13.265625 -1.40625 C 13.835938 -1.207031 14.679688 -1.078125 15.796875 -1.015625 L 15.796875 0 C 14.984375 -0.0625 13.960938 -0.101562 12.734375 -0.125 C 11.503906 -0.144531 10.25 -0.15625 8.96875 -0.15625 C 7.550781 -0.15625 6.222656 -0.144531 4.984375 -0.125 C 3.753906 -0.101562 2.75 -0.0625 1.96875 0 L 1.96875 -1.015625 C 3.125 -1.078125 3.988281 -1.207031 4.5625 -1.40625 C 5.132812 -1.613281 5.507812 -2.019531 5.6875 -2.625 C 5.875 -3.238281 5.96875 -4.15625 5.96875 -5.375 L 5.96875 -30.484375 C 5.96875 -31.734375 5.875 -32.648438 5.6875 -33.234375 C 5.507812 -33.828125 5.125 -34.234375 4.53125 -34.453125 C 3.9375 -34.679688 3.082031 -34.8125 1.96875 -34.84375 L 1.96875 -35.859375 C 2.75 -35.816406 3.753906 -35.78125 4.984375 -35.75 C 6.222656 -35.71875 7.550781 -35.703125 8.96875 -35.703125 C 10.25 -35.703125 11.503906 -35.71875 12.734375 -35.75 C 13.960938 -35.78125 14.984375 -35.816406 15.796875 -35.859375 Z M 15.796875 -35.859375 "/></g></g></g><g fill="#000000" fill-opacity="1"><g transform="translate(352.024927, 55.095512)"><g><path d="M 19.25 -36.5625 C 22.550781 -36.5625 25.457031 -35.832031 27.96875 -34.375 C 30.488281 -32.925781 32.441406 -30.84375 33.828125 -28.125 C 35.210938 -25.40625 35.90625 -22.109375 35.90625 -18.234375 C 35.90625 -14.453125 35.195312 -11.140625 33.78125 -8.296875 C 32.363281 -5.460938 30.382812 -3.253906 27.84375 -1.671875 C 25.3125 -0.0859375 22.425781 0.703125 19.1875 0.703125 C 15.84375 0.703125 12.921875 -0.0195312 10.421875 -1.46875 C 7.929688 -2.914062 5.992188 -5.003906 4.609375 -7.734375 C 3.222656 -10.472656 2.53125 -13.769531 2.53125 -17.625 C 2.53125 -21.40625 3.25 -24.710938 4.6875 -27.546875 C 6.125 -30.378906 8.085938 -32.585938 10.578125 -34.171875 C 13.078125 -35.765625 15.96875 -36.5625 19.25 -36.5625 Z M 19.046875 -35.65625 C 16.953125 -35.65625 15.128906 -34.894531 13.578125 -33.375 C 12.023438 -31.851562 10.820312 -29.757812 9.96875 -27.09375 C 9.125 -24.425781 8.703125 -21.335938 8.703125 -17.828125 C 8.703125 -14.242188 9.175781 -11.125 10.125 -8.46875 C 11.070312 -5.820312 12.351562 -3.78125 13.96875 -2.34375 C 15.59375 -0.914062 17.398438 -0.203125 19.390625 -0.203125 C 21.484375 -0.203125 23.296875 -0.960938 24.828125 -2.484375 C 26.367188 -4.003906 27.566406 -6.101562 28.421875 -8.78125 C 29.285156 -11.46875 29.71875 -14.550781 29.71875 -18.03125 C 29.71875 -21.644531 29.238281 -24.765625 28.28125 -27.390625 C 27.320312 -30.023438 26.039062 -32.0625 24.4375 -33.5 C 22.832031 -34.9375 21.035156 -35.65625 19.046875 -35.65625 Z M 19.046875 -35.65625 "/></g></g></g><g fill="#000000" fill-opacity="1"><g transform="translate(401.685596, 55.095512)"><g><path d="M 34.328125 -35.859375 L 34.328125 -34.84375 C 33.179688 -34.769531 32.320312 -34.566406 31.75 -34.234375 C 31.175781 -33.898438 30.796875 -33.351562 30.609375 -32.59375 C 30.421875 -31.832031 30.328125 -30.757812 30.328125 -29.375 L 30.328125 0.203125 C 30.054688 0.203125 29.785156 0.203125 29.515625 0.203125 C 29.253906 0.203125 28.96875 0.203125 28.65625 0.203125 L 7.1875 -30.984375 L 7.1875 -6.6875 C 7.1875 -5.269531 7.285156 -4.160156 7.484375 -3.359375 C 7.691406 -2.566406 8.132812 -2.003906 8.8125 -1.671875 C 9.488281 -1.335938 10.519531 -1.117188 11.90625 -1.015625 L 11.90625 0 C 11.257812 -0.0625 10.4375 -0.101562 9.4375 -0.125 C 8.445312 -0.144531 7.515625 -0.15625 6.640625 -0.15625 C 5.796875 -0.15625 4.945312 -0.144531 4.09375 -0.125 C 3.25 -0.101562 2.5625 -0.0625 2.03125 0 L 2.03125 -1.015625 C 3.144531 -1.117188 3.988281 -1.328125 4.5625 -1.640625 C 5.132812 -1.960938 5.519531 -2.507812 5.71875 -3.28125 C 5.925781 -4.0625 6.03125 -5.128906 6.03125 -6.484375 L 6.03125 -30.484375 C 6.03125 -31.734375 5.925781 -32.648438 5.71875 -33.234375 C 5.519531 -33.828125 5.132812 -34.234375 4.5625 -34.453125 C 3.988281 -34.679688 3.144531 -34.8125 2.03125 -34.84375 L 2.03125 -35.859375 C 2.5625 -35.816406 3.25 -35.78125 4.09375 -35.75 C 4.945312 -35.71875 5.796875 -35.703125 6.640625 -35.703125 C 7.378906 -35.703125 8.101562 -35.71875 8.8125 -35.75 C 9.519531 -35.78125 10.144531 -35.816406 10.6875 -35.859375 L 29.171875 -9.421875 L 29.171875 -29.171875 C 29.171875 -30.617188 29.0625 -31.726562 28.84375 -32.5 C 28.625 -33.28125 28.175781 -33.847656 27.5 -34.203125 C 26.820312 -34.554688 25.804688 -34.769531 24.453125 -34.84375 L 24.453125 -35.859375 C 25.066406 -35.816406 25.878906 -35.78125 26.890625 -35.75 C 27.898438 -35.71875 28.84375 -35.703125 29.71875 -35.703125 C 30.5625 -35.703125 31.40625 -35.71875 32.25 -35.75 C 33.101562 -35.78125 33.796875 -35.816406 34.328125 -35.859375 Z M 34.328125 -35.859375 "/></g></g></g><g fill="#000000" fill-opacity="1"><g transform="translate(448.967659, 55.095512)"><g><path d="M 13.421875 -36.46875 C 15.210938 -36.46875 16.578125 -36.265625 17.515625 -35.859375 C 18.460938 -35.453125 19.289062 -35.007812 20 -34.53125 C 20.40625 -34.300781 20.734375 -34.125 20.984375 -34 C 21.242188 -33.882812 21.488281 -33.828125 21.71875 -33.828125 C 22.0625 -33.828125 22.304688 -34.007812 22.453125 -34.375 C 22.609375 -34.75 22.738281 -35.3125 22.84375 -36.0625 L 24 -36.0625 C 23.96875 -35.445312 23.925781 -34.722656 23.875 -33.890625 C 23.820312 -33.066406 23.785156 -31.976562 23.765625 -30.625 C 23.753906 -29.28125 23.75 -27.507812 23.75 -25.3125 L 22.578125 -25.3125 C 22.484375 -26.96875 22.125 -28.570312 21.5 -30.125 C 20.875 -31.675781 19.960938 -32.941406 18.765625 -33.921875 C 17.566406 -34.898438 16.035156 -35.390625 14.171875 -35.390625 C 12.453125 -35.390625 11.023438 -34.875 9.890625 -33.84375 C 8.765625 -32.820312 8.203125 -31.46875 8.203125 -29.78125 C 8.203125 -28.289062 8.570312 -27.046875 9.3125 -26.046875 C 10.0625 -25.054688 11.082031 -24.128906 12.375 -23.265625 C 13.675781 -22.410156 15.15625 -21.457031 16.8125 -20.40625 C 18.5 -19.320312 20.015625 -18.25 21.359375 -17.1875 C 22.710938 -16.125 23.773438 -14.953125 24.546875 -13.671875 C 25.328125 -12.390625 25.71875 -10.835938 25.71875 -9.015625 C 25.71875 -6.816406 25.203125 -5 24.171875 -3.5625 C 23.148438 -2.132812 21.773438 -1.066406 20.046875 -0.359375 C 18.328125 0.347656 16.4375 0.703125 14.375 0.703125 C 12.488281 0.703125 10.988281 0.5 9.875 0.09375 C 8.757812 -0.300781 7.8125 -0.722656 7.03125 -1.171875 C 6.289062 -1.640625 5.71875 -1.875 5.3125 -1.875 C 4.976562 -1.875 4.734375 -1.6875 4.578125 -1.3125 C 4.429688 -0.945312 4.304688 -0.390625 4.203125 0.359375 L 3.03125 0.359375 C 3.101562 -0.390625 3.144531 -1.257812 3.15625 -2.25 C 3.175781 -3.25 3.191406 -4.554688 3.203125 -6.171875 C 3.222656 -7.796875 3.234375 -9.84375 3.234375 -12.3125 L 4.40625 -12.3125 C 4.539062 -10.21875 4.921875 -8.257812 5.546875 -6.4375 C 6.171875 -4.613281 7.128906 -3.148438 8.421875 -2.046875 C 9.722656 -0.953125 11.457031 -0.40625 13.625 -0.40625 C 14.769531 -0.40625 15.832031 -0.625 16.8125 -1.0625 C 17.789062 -1.5 18.582031 -2.191406 19.1875 -3.140625 C 19.800781 -4.085938 20.109375 -5.300781 20.109375 -6.78125 C 20.109375 -8.164062 19.773438 -9.378906 19.109375 -10.421875 C 18.453125 -11.472656 17.539062 -12.445312 16.375 -13.34375 C 15.21875 -14.238281 13.863281 -15.160156 12.3125 -16.109375 C 10.71875 -17.117188 9.226562 -18.128906 7.84375 -19.140625 C 6.457031 -20.148438 5.351562 -21.332031 4.53125 -22.6875 C 3.707031 -24.039062 3.296875 -25.644531 3.296875 -27.5 C 3.296875 -29.5625 3.773438 -31.25 4.734375 -32.5625 C 5.691406 -33.875 6.9375 -34.851562 8.46875 -35.5 C 10.007812 -36.144531 11.660156 -36.46875 13.421875 -36.46875 Z M 13.421875 -36.46875 "/></g></g></g></g></g><g clip-path="url(#6c3fda65f0)"><g clip-path="url(#ac733f5b6e)"><g clip-path="url(#ea6b8e49f9)"><g clip-path="url(#616fe2c342)"><path fill="#000000" d="M 287.6875 310.503906 L 287.976562 306.753906 C 287.617188 306.507812 287.308594 306.21875 287.042969 305.894531 C 278.652344 309.894531 257.460938 317.621094 234.660156 321.8125 C 205.910156 327.097656 149.191406 339.050781 118.28125 337.851562 C 116.21875 337.839844 114.164062 337.683594 112.253906 337.535156 C 86.277344 335.542969 77.015625 327.339844 64.671875 315.082031 C 64.671875 315.082031 63.273438 314.09375 61.65625 313.96875 C 60.628906 313.890625 59.570312 314.25 58.882812 315.519531 C 58.554688 315.933594 58.507812 316.519531 58.476562 316.957031 C 58.242188 320.023438 61.449219 324.382812 68.640625 328.753906 C 75.542969 333.101562 89.125 338.847656 110.109375 340.457031 C 115.101562 340.839844 120.554688 340.964844 126.46875 340.832031 C 157.105469 339.804688 209.558594 331.488281 238.691406 325.058594 C 263.179688 319.652344 280.320312 314.722656 287.046875 311.601562 C 287.214844 311.210938 287.429688 310.84375 287.6875 310.503906 Z M 287.6875 310.503906 " fill-opacity="1" fill-rule="nonzero"/></g></g></g></g></svg>